<svg width="38" height="38" viewBox="0 0 38 38" fill="none" xmlns="http://www.w3.org/2000/svg">
<mask id="mask0_255_234" style="mask-type:alpha" maskUnits="userSpaceOnUse" x="0" y="0" width="38" height="38">
<rect width="38" height="38" fill="#D9D9D9"/>
</mask>
<g mask="url(#mask0_255_234)">
<path d="M9.26234 27.075C10.6082 26.0459 12.1123 25.2344 13.7748 24.6406C15.4373 24.0469 17.179 23.75 18.9998 23.75C20.8207 23.75 22.5623 24.0469 24.2248 24.6406C25.8873 25.2344 27.3915 26.0459 28.7373 27.075C29.6609 25.9931 30.38 24.766 30.8946 23.3938C31.4092 22.0215 31.6665 20.557 31.6665 19C31.6665 15.4903 30.4328 12.5018 27.9655 10.0344C25.4981 7.56703 22.5096 6.33335 18.9998 6.33335C15.4901 6.33335 12.5016 7.56703 10.0342 10.0344C7.56685 12.5018 6.33317 15.4903 6.33317 19C6.33317 20.557 6.59046 22.0215 7.10505 23.3938C7.61963 24.766 8.33873 25.9931 9.26234 27.075ZM18.9998 20.5834C17.4429 20.5834 16.13 20.049 15.0613 18.9802C13.9925 17.9115 13.4582 16.5986 13.4582 15.0417C13.4582 13.4847 13.9925 12.1719 15.0613 11.1031C16.13 10.0344 17.4429 9.50002 18.9998 9.50002C20.5568 9.50002 21.8696 10.0344 22.9384 11.1031C24.0071 12.1719 24.5415 13.4847 24.5415 15.0417C24.5415 16.5986 24.0071 17.9115 22.9384 18.9802C21.8696 20.049 20.5568 20.5834 18.9998 20.5834ZM18.9998 34.8334C16.8096 34.8334 14.7512 34.4177 12.8248 33.5865C10.8984 32.7552 9.22275 31.6271 7.79775 30.2021C6.37275 28.7771 5.24463 27.1014 4.41338 25.175C3.58213 23.2486 3.1665 21.1903 3.1665 19C3.1665 16.8097 3.58213 14.7514 4.41338 12.825C5.24463 10.8986 6.37275 9.22294 7.79775 7.79794C9.22275 6.37294 10.8984 5.24481 12.8248 4.41356C14.7512 3.58231 16.8096 3.16669 18.9998 3.16669C21.1901 3.16669 23.2484 3.58231 25.1748 4.41356C27.1012 5.24481 28.7769 6.37294 30.2019 7.79794C31.6269 9.22294 32.755 10.8986 33.5863 12.825C34.4175 14.7514 34.8332 16.8097 34.8332 19C34.8332 21.1903 34.4175 23.2486 33.5863 25.175C32.755 27.1014 31.6269 28.7771 30.2019 30.2021C28.7769 31.6271 27.1012 32.7552 25.1748 33.5865C23.2484 34.4177 21.1901 34.8334 18.9998 34.8334Z" fill="#FBB45E"/>
</g>
</svg>
