<svg width="197" height="58" viewBox="0 0 197 58" fill="none" xmlns="http://www.w3.org/2000/svg">
<circle cx="32.8387" cy="51.3713" r="1.95128" fill="#FBB45E"/>
<path fill-rule="evenodd" clip-rule="evenodd" d="M12.064 7.32826C12.7118 9.00914 13.1631 10.6679 13.4107 12.1568C14.6376 11.7728 15.9427 11.5658 17.2961 11.5658H21.5951C22.8605 11.5658 24.0836 11.7467 25.24 12.0841C25.4901 10.6139 25.9372 8.98183 26.5745 7.32826C28.4518 2.45773 31.2686 -0.754491 32.866 0.15356C34.4634 1.06161 34.2366 5.74608 32.3593 10.6166C31.7307 12.2474 30.9969 13.6923 30.2387 14.8589C32.9056 17.2378 34.5848 20.7006 34.5848 24.5555C34.5848 31.7296 28.7691 37.5453 21.5951 37.5453H17.2961C10.1221 37.5453 4.3064 31.7296 4.3064 24.5555C4.3064 20.7774 5.91935 17.3761 8.49422 15.0024C7.70266 13.8117 6.93381 12.315 6.27919 10.6166C4.40194 5.74608 4.17509 1.06161 5.77252 0.15356C7.36994 -0.754491 10.1867 2.45773 12.064 7.32826Z" fill="#FBB45E"/>
<path d="M36.6033 24.3573V24.3573C26.806 24.3573 18.8637 32.2996 18.8637 42.0969V58V58C28.661 58 36.6033 50.0577 36.6033 40.2604V24.3573Z" fill="#5EB4FB"/>
<path d="M3.09497 24.3573V24.3573C12.8923 24.3573 20.8346 32.2996 20.8346 42.0969V58V58C11.0373 58 3.09497 50.0577 3.09497 40.2604V24.3573Z" fill="#5EB4FB"/>
<path fill-rule="evenodd" clip-rule="evenodd" d="M31.2185 36.2784C31.0338 35.9432 30.9306 35.5692 30.9306 35.1748C30.9306 33.7341 32.307 32.5662 34.005 32.5662C35.4731 32.5662 36.7008 33.4393 37.0064 34.6069C38.0545 35.4037 38.7563 36.8619 38.7563 38.5287C38.7563 39.5912 38.4711 40.5689 37.9928 41.3446C37.9384 42.4292 37.0636 43.5237 35.7366 44.023C34.0689 44.6506 32.3184 44.1003 31.8268 42.794C31.5847 42.1504 31.6932 41.4435 32.065 40.8167C32.0129 40.7024 31.9646 40.585 31.9203 40.4647C30.9439 40.0276 30.2784 39.1577 30.2784 38.156C30.2784 37.4187 30.6389 36.7528 31.2185 36.2784Z" fill="#FBB45E"/>
<path fill-rule="evenodd" clip-rule="evenodd" d="M7.53786 38.9698C7.72258 38.6346 7.82577 38.2606 7.82577 37.8662C7.82577 36.4255 6.4493 35.2576 4.75134 35.2576C3.28326 35.2576 2.05551 36.1307 1.74999 37.2983C0.701875 38.0951 0 39.5533 0 41.2201C0 42.2826 0.285209 43.2603 0.763505 44.036C0.817992 45.1205 1.69278 46.2151 3.01975 46.7144C4.6875 47.3419 6.43796 46.7917 6.92952 45.4853C7.17167 44.8418 7.06315 44.1348 6.69132 43.5081C6.74343 43.3938 6.79175 43.2764 6.83607 43.1561C7.81243 42.719 8.47795 41.8492 8.47795 40.8474C8.47795 40.1101 8.11745 39.4443 7.53786 38.9698Z" fill="#FBB45E"/>
<ellipse cx="15.543" cy="20.9257" rx="1.14385" ry="2.08585" fill="white"/>
<ellipse cx="22.0023" cy="20.9257" rx="1.14385" ry="2.08585" fill="white"/>
<rect x="21.2622" y="38.4872" width="8.07424" height="0.538283" rx="0.269141" fill="black"/>
<rect x="23.9536" y="40.1021" width="5.38283" height="0.538283" rx="0.269141" fill="black"/>
<rect x="25.9722" y="41.9861" width="3.36427" height="0.538283" rx="0.269141" fill="black"/>
<rect x="22.7424" y="43.4663" width="6.59397" height="0.538283" rx="0.269141" fill="black"/>
<path d="M53.7193 17.7778H55.2008V19.2593H53.7193V17.7778ZM53.7193 19.2593H55.2008V20.7407H53.7193V19.2593ZM53.7193 20.7407H55.2008V22.2222H53.7193V20.7407ZM53.7193 22.2222H55.2008V23.7037H53.7193V22.2222ZM53.7193 23.7037H55.2008V25.1852H53.7193V23.7037ZM53.7193 25.1852H55.2008V26.6667H53.7193V25.1852ZM53.7193 26.6667H55.2008V28.1481H53.7193V26.6667ZM53.7193 28.1481H55.2008V29.6296H53.7193V28.1481ZM53.7193 29.6296H55.2008V31.1111H53.7193V29.6296ZM53.7193 31.1111H55.2008V32.5926H53.7193V31.1111ZM53.7193 32.5926H55.2008V34.0741H53.7193V32.5926ZM53.7193 34.0741H55.2008V35.5556H53.7193V34.0741ZM53.7193 35.5556H55.2008V37.037H53.7193V35.5556ZM53.7193 37.037H55.2008V38.5185H53.7193V37.037ZM53.7193 38.5185H55.2008V40H53.7193V38.5185ZM52.2378 38.5185H53.7193V40H52.2378V38.5185ZM52.2378 37.037H53.7193V38.5185H52.2378V37.037ZM52.2378 35.5556H53.7193V37.037H52.2378V35.5556ZM52.2378 19.2593H53.7193V20.7407H52.2378V19.2593ZM52.2378 17.7778H53.7193V19.2593H52.2378V17.7778ZM52.2378 20.7407H53.7193V22.2222H52.2378V20.7407ZM52.2378 22.2222H53.7193V23.7037H52.2378V22.2222ZM52.2378 23.7037H53.7193V25.1852H52.2378V23.7037ZM52.2378 25.1852H53.7193V26.6667H52.2378V25.1852ZM52.2378 26.6667H53.7193V28.1481H52.2378V26.6667ZM52.2378 28.1481H53.7193V29.6296H52.2378V28.1481ZM52.2378 29.6296H53.7193V31.1111H52.2378V29.6296ZM52.2378 31.1111H53.7193V32.5926H52.2378V31.1111ZM52.2378 32.5926H53.7193V34.0741H52.2378V32.5926ZM52.2378 34.0741H53.7193V35.5556H52.2378V34.0741ZM55.2008 38.5185H56.6823V40H55.2008V38.5185ZM55.2008 37.037H56.6823V38.5185H55.2008V37.037ZM55.2008 35.5556H56.6823V37.037H55.2008V35.5556ZM55.2008 34.0741H56.6823V35.5556H55.2008V34.0741ZM55.2008 31.1111H56.6823V32.5926H55.2008V31.1111ZM55.2008 29.6296H56.6823V31.1111H55.2008V29.6296ZM55.2008 28.1481H56.6823V29.6296H55.2008V28.1481ZM55.2008 26.6667H56.6823V28.1481H55.2008V26.6667ZM55.2008 25.1852H56.6823V26.6667H55.2008V25.1852ZM55.2008 23.7037H56.6823V25.1852H55.2008V23.7037ZM55.2008 17.7778H56.6823V19.2593H55.2008V17.7778ZM55.2008 19.2593H56.6823V20.7407H55.2008V19.2593ZM55.2008 20.7407H56.6823V22.2222H55.2008V20.7407ZM55.2008 22.2222H56.6823V23.7037H55.2008V22.2222ZM55.2008 32.5926H56.6823V34.0741H55.2008V32.5926ZM56.6823 38.5185H58.1638V40H56.6823V38.5185ZM58.1638 38.5185H59.6452V40H58.1638V38.5185ZM59.6452 38.5185H61.1267V40H59.6452V38.5185ZM59.6452 37.037H61.1267V38.5185H59.6452V37.037ZM59.6452 35.5556H61.1267V37.037H59.6452V35.5556ZM58.1638 35.5556H59.6452V37.037H58.1638V35.5556ZM58.1638 37.037H59.6452V38.5185H58.1638V37.037ZM56.6823 37.037H58.1638V38.5185H56.6823V37.037ZM56.6823 35.5556H58.1638V37.037H56.6823V35.5556ZM61.1267 35.5556H62.6082V37.037H61.1267V35.5556ZM61.1267 37.037H62.6082V38.5185H61.1267V37.037ZM61.1267 38.5185H62.6082V40H61.1267V38.5185ZM62.6082 38.5185H64.0897V40H62.6082V38.5185ZM62.6082 37.037H64.0897V38.5185H62.6082V37.037ZM62.6082 35.5556H64.0897V37.037H62.6082V35.5556ZM67.0425 17.7778H68.524V19.2593H67.0425V17.7778ZM67.0425 19.2593H68.524V20.7407H67.0425V19.2593ZM67.0425 20.7407H68.524V22.2222H67.0425V20.7407ZM67.0425 25.1852H68.524V26.6667H67.0425V25.1852ZM67.0425 26.6667H68.524V28.1481H67.0425V26.6667ZM67.0425 28.1481H68.524V29.6296H67.0425V28.1481ZM67.0425 29.6296H68.524V31.1111H67.0425V29.6296ZM67.0425 31.1111H68.524V32.5926H67.0425V31.1111ZM67.0425 32.5926H68.524V34.0741H67.0425V32.5926ZM67.0425 34.0741H68.524V35.5556H67.0425V34.0741ZM67.0425 35.5556H68.524V37.037H67.0425V35.5556ZM67.0425 37.037H68.524V38.5185H67.0425V37.037ZM67.0425 38.5185H68.524V40H67.0425V38.5185ZM68.524 38.5185H70.0055V40H68.524V38.5185ZM70.0055 38.5185H71.487V40H70.0055V38.5185ZM70.0055 37.037H71.487V38.5185H70.0055V37.037ZM70.0055 35.5556H71.487V37.037H70.0055V35.5556ZM70.0055 34.0741H71.487V35.5556H70.0055V34.0741ZM70.0055 32.5926H71.487V34.0741H70.0055V32.5926ZM70.0055 31.1111H71.487V32.5926H70.0055V31.1111ZM70.0055 29.6296H71.487V31.1111H70.0055V29.6296ZM70.0055 28.1481H71.487V29.6296H70.0055V28.1481ZM70.0055 26.6667H71.487V28.1481H70.0055V26.6667ZM70.0055 17.7778H71.487V19.2593H70.0055V17.7778ZM68.524 17.7778H70.0055V19.2593H68.524V17.7778ZM68.524 19.2593H70.0055V20.7407H68.524V19.2593ZM70.0055 19.2593H71.487V20.7407H70.0055V19.2593ZM70.0055 20.7407H71.487V22.2222H70.0055V20.7407ZM70.0055 25.1852H71.487V26.6667H70.0055V25.1852ZM68.524 20.7407H70.0055V22.2222H68.524V20.7407ZM68.524 25.1852H70.0055V26.6667H68.524V25.1852ZM68.524 26.6667H70.0055V28.1481H68.524V26.6667ZM68.524 37.037H70.0055V38.5185H68.524V37.037ZM68.524 35.5556H70.0055V37.037H68.524V35.5556ZM68.524 34.0741H70.0055V35.5556H68.524V34.0741ZM68.524 32.5926H70.0055V34.0741H68.524V32.5926ZM68.524 31.1111H70.0055V32.5926H68.524V31.1111ZM68.524 29.6296H70.0055V31.1111H68.524V29.6296ZM68.524 28.1481H70.0055V29.6296H68.524V28.1481ZM80.3903 19.2593H81.8718V20.7407H80.3903V19.2593ZM80.3903 20.7407H81.8718V22.2222H80.3903V20.7407ZM78.9088 20.7407H80.3903V22.2222H78.9088V20.7407ZM80.3903 22.2222H81.8718V23.7037H80.3903V22.2222ZM78.9088 22.2222H80.3903V23.7037H78.9088V22.2222ZM77.4274 22.2222H78.9088V23.7037H77.4274V22.2222ZM77.4274 23.7037H78.9088V25.1852H77.4274V23.7037ZM78.9088 23.7037H80.3903V25.1852H78.9088V23.7037ZM80.3903 23.7037H81.8718V25.1852H80.3903V23.7037ZM80.3903 25.1852H81.8718V26.6667H80.3903V25.1852ZM78.9088 25.1852H80.3903V26.6667H78.9088V25.1852ZM77.4274 25.1852H78.9088V26.6667H77.4274V25.1852ZM75.9459 25.1852H77.4274V26.6667H75.9459V25.1852ZM74.4644 25.1852H75.9459V26.6667H74.4644V25.1852ZM74.4644 26.6667H75.9459V28.1481H74.4644V26.6667ZM75.9459 26.6667H77.4274V28.1481H75.9459V26.6667ZM77.4274 26.6667H78.9088V28.1481H77.4274V26.6667ZM78.9088 26.6667H80.3903V28.1481H78.9088V26.6667ZM80.3903 26.6667H81.8718V28.1481H80.3903V26.6667ZM81.8718 26.6667H83.3533V28.1481H81.8718V26.6667ZM83.3533 26.6667H84.8348V28.1481H83.3533V26.6667ZM84.8348 26.6667H86.3162V28.1481H84.8348V26.6667ZM84.8348 25.1852H86.3162V26.6667H84.8348V25.1852ZM83.3533 25.1852H84.8348V26.6667H83.3533V25.1852ZM81.8718 25.1852H83.3533V26.6667H81.8718V25.1852ZM77.4274 28.1481H78.9088V29.6296H77.4274V28.1481ZM78.9088 28.1481H80.3903V29.6296H78.9088V28.1481ZM80.3903 28.1481H81.8718V29.6296H80.3903V28.1481ZM80.3903 29.6296H81.8718V31.1111H80.3903V29.6296ZM80.3903 31.1111H81.8718V32.5926H80.3903V31.1111ZM80.3903 32.5926H81.8718V34.0741H80.3903V32.5926ZM80.3903 34.0741H81.8718V35.5556H80.3903V34.0741ZM78.9088 34.0741H80.3903V35.5556H78.9088V34.0741ZM78.9088 32.5926H80.3903V34.0741H78.9088V32.5926ZM78.9088 31.1111H80.3903V32.5926H78.9088V31.1111ZM78.9088 29.6296H80.3903V31.1111H78.9088V29.6296ZM77.4274 29.6296H78.9088V31.1111H77.4274V29.6296ZM77.4274 31.1111H78.9088V32.5926H77.4274V31.1111ZM77.4274 32.5926H78.9088V34.0741H77.4274V32.5926ZM77.4274 34.0741H78.9088V35.5556H77.4274V34.0741ZM77.4274 35.5556H78.9088V37.037H77.4274V35.5556ZM78.9088 35.5556H80.3903V37.037H78.9088V35.5556ZM80.3903 35.5556H81.8718V37.037H80.3903V35.5556ZM81.8718 35.5556H83.3533V37.037H81.8718V35.5556ZM81.8718 37.037H83.3533V38.5185H81.8718V37.037ZM80.3903 37.037H81.8718V38.5185H80.3903V37.037ZM78.9088 37.037H80.3903V38.5185H78.9088V37.037ZM83.3533 37.037H84.8348V38.5185H83.3533V37.037ZM84.8348 37.037H86.3162V38.5185H84.8348V37.037ZM84.8348 38.5185H86.3162V40H84.8348V38.5185ZM83.3533 38.5185H84.8348V40H83.3533V38.5185ZM81.8718 38.5185H83.3533V40H81.8718V38.5185ZM80.3903 38.5185H81.8718V40H80.3903V38.5185ZM92.232 23.7037H93.7135V25.1852H92.232V23.7037ZM93.7135 23.7037H95.195V25.1852H93.7135V23.7037ZM95.195 23.7037H96.6765V25.1852H95.195V23.7037ZM96.6765 23.7037H98.158V25.1852H96.6765V23.7037ZM98.158 23.7037H99.6394V25.1852H98.158V23.7037ZM99.6394 23.7037H101.121V25.1852H99.6394V23.7037ZM101.121 25.1852H102.602V26.6667H101.121V25.1852ZM99.6394 25.1852H101.121V26.6667H99.6394V25.1852ZM98.158 25.1852H99.6394V26.6667H98.158V25.1852ZM96.6765 25.1852H98.158V26.6667H96.6765V25.1852ZM95.195 25.1852H96.6765V26.6667H95.195V25.1852ZM93.7135 25.1852H95.195V26.6667H93.7135V25.1852ZM92.232 25.1852H93.7135V26.6667H92.232V25.1852ZM90.7506 25.1852H92.232V26.6667H90.7506V25.1852ZM90.7506 26.6667H92.232V28.1481H90.7506V26.6667ZM92.232 26.6667H93.7135V28.1481H92.232V26.6667ZM89.2691 26.6667H90.7506V28.1481H89.2691V26.6667ZM89.2691 28.1481H90.7506V29.6296H89.2691V28.1481ZM89.2691 29.6296H90.7506V31.1111H89.2691V29.6296ZM90.7506 29.6296H92.232V31.1111H90.7506V29.6296ZM92.232 29.6296H93.7135V31.1111H92.232V29.6296ZM92.232 28.1481H93.7135V29.6296H92.232V28.1481ZM90.7506 28.1481H92.232V29.6296H90.7506V28.1481ZM90.7506 31.1111H92.232V32.5926H90.7506V31.1111ZM90.7506 32.5926H92.232V34.0741H90.7506V32.5926ZM90.7506 34.0741H92.232V35.5556H90.7506V34.0741ZM89.2691 34.0741H90.7506V35.5556H89.2691V34.0741ZM89.2691 35.5556H90.7506V37.037H89.2691V35.5556ZM89.2691 32.5926H90.7506V34.0741H89.2691V32.5926ZM89.2691 31.1111H90.7506V32.5926H89.2691V31.1111ZM92.232 31.1111H93.7135V32.5926H92.232V31.1111ZM92.232 32.5926H93.7135V34.0741H92.232V32.5926ZM92.232 34.0741H93.7135V35.5556H92.232V34.0741ZM92.232 35.5556H93.7135V37.037H92.232V35.5556ZM90.7506 35.5556H92.232V37.037H90.7506V35.5556ZM90.7506 37.037H92.232V38.5185H90.7506V37.037ZM92.232 37.037H93.7135V38.5185H92.232V37.037ZM93.7135 37.037H95.195V38.5185H93.7135V37.037ZM93.7135 35.5556H95.195V37.037H93.7135V35.5556ZM92.232 38.5185H93.7135V40H92.232V38.5185ZM93.7135 38.5185H95.195V40H93.7135V38.5185ZM95.195 38.5185H96.6765V40H95.195V38.5185ZM96.6765 38.5185H98.158V40H96.6765V38.5185ZM98.158 38.5185H99.6394V40H98.158V38.5185ZM99.6394 38.5185H101.121V40H99.6394V38.5185ZM98.158 37.037H99.6394V38.5185H98.158V37.037ZM96.6765 37.037H98.158V38.5185H96.6765V37.037ZM95.195 37.037H96.6765V38.5185H95.195V37.037ZM99.6394 37.037H101.121V38.5185H99.6394V37.037ZM101.121 37.037H102.602V38.5185H101.121V37.037ZM99.6394 35.5556H101.121V37.037H99.6394V35.5556ZM98.158 35.5556H99.6394V37.037H98.158V35.5556ZM101.121 35.5556H102.602V37.037H101.121V35.5556ZM102.602 35.5556H104.084V37.037H102.602V35.5556ZM101.121 28.1481H102.602V29.6296H101.121V28.1481ZM102.602 28.1481H104.084V29.6296H102.602V28.1481ZM102.602 26.6667H104.084V28.1481H102.602V26.6667ZM99.6394 28.1481H101.121V29.6296H99.6394V28.1481ZM99.6394 26.6667H101.121V28.1481H99.6394V26.6667ZM101.121 26.6667H102.602V28.1481H101.121V26.6667ZM95.195 35.5556H96.6765V37.037H95.195V35.5556ZM96.6765 35.5556H98.158V37.037H96.6765V35.5556ZM102.602 29.6296H104.084V31.1111H102.602V29.6296ZM101.121 29.6296H102.602V31.1111H101.121V29.6296ZM99.6394 29.6296H101.121V31.1111H99.6394V29.6296ZM95.195 31.1111H96.6765V32.5926H95.195V31.1111ZM96.6765 31.1111H98.158V32.5926H96.6765V31.1111ZM98.158 31.1111H99.6394V32.5926H98.158V31.1111ZM99.6394 31.1111H101.121V32.5926H99.6394V31.1111ZM101.121 31.1111H102.602V32.5926H101.121V31.1111ZM102.602 31.1111H104.084V32.5926H102.602V31.1111ZM93.7135 31.1111H95.195V32.5926H93.7135V31.1111ZM93.7135 26.6667H95.195V28.1481H93.7135V26.6667ZM95.195 26.6667H96.6765V28.1481H95.195V26.6667ZM96.6765 26.6667H98.158V28.1481H96.6765V26.6667ZM98.158 26.6667H99.6394V28.1481H98.158V26.6667ZM102.602 32.5926H104.084V34.0741H102.602V32.5926ZM101.121 32.5926H102.602V34.0741H101.121V32.5926ZM98.158 32.5926H99.6394V34.0741H98.158V32.5926ZM96.6765 32.5926H98.158V34.0741H96.6765V32.5926ZM95.195 32.5926H96.6765V34.0741H95.195V32.5926ZM93.7135 32.5926H95.195V34.0741H93.7135V32.5926ZM99.6394 32.5926H101.121V34.0741H99.6394V32.5926ZM110.005 23.7037H111.487V25.1852H110.005V23.7037ZM108.524 25.1852H110.005V26.6667H108.524V25.1852ZM108.524 26.6667H110.005V28.1481H108.524V26.6667ZM107.043 25.1852H108.524V26.6667H107.043V25.1852ZM107.043 23.7037H108.524V25.1852H107.043V23.7037ZM108.524 23.7037H110.005V25.1852H108.524V23.7037ZM108.524 28.1481H110.005V29.6296H108.524V28.1481ZM107.043 28.1481H108.524V29.6296H107.043V28.1481ZM107.043 29.6296H108.524V31.1111H107.043V29.6296ZM107.043 26.6667H108.524V28.1481H107.043V26.6667ZM107.043 31.1111H108.524V32.5926H107.043V31.1111ZM107.043 32.5926H108.524V34.0741H107.043V32.5926ZM107.043 34.0741H108.524V35.5556H107.043V34.0741ZM107.043 35.5556H108.524V37.037H107.043V35.5556ZM107.043 37.037H108.524V38.5185H107.043V37.037ZM108.524 37.037H110.005V38.5185H108.524V37.037ZM110.005 37.037H111.487V38.5185H110.005V37.037ZM110.005 38.5185H111.487V40H110.005V38.5185ZM108.524 38.5185H110.005V40H108.524V38.5185ZM107.043 38.5185H108.524V40H107.043V38.5185ZM110.005 35.5556H111.487V37.037H110.005V35.5556ZM110.005 34.0741H111.487V35.5556H110.005V34.0741ZM110.005 32.5926H111.487V34.0741H110.005V32.5926ZM110.005 31.1111H111.487V32.5926H110.005V31.1111ZM110.005 29.6296H111.487V31.1111H110.005V29.6296ZM110.005 28.1481H111.487V29.6296H110.005V28.1481ZM110.005 26.6667H111.487V28.1481H110.005V26.6667ZM110.005 25.1852H111.487V26.6667H110.005V25.1852ZM108.524 29.6296H110.005V31.1111H108.524V29.6296ZM108.524 32.5926H110.005V34.0741H108.524V32.5926ZM108.524 34.0741H110.005V35.5556H108.524V34.0741ZM108.524 35.5556H110.005V37.037H108.524V35.5556ZM108.524 31.1111H110.005V32.5926H108.524V31.1111ZM117.413 26.6667H118.894V28.1481H117.413V26.6667ZM117.413 25.1852H118.894V26.6667H117.413V25.1852ZM115.931 25.1852H117.413V26.6667H115.931V25.1852ZM114.45 25.1852H115.931V26.6667H114.45V25.1852ZM118.894 25.1852H120.376V26.6667H118.894V25.1852ZM117.413 23.7037H118.894V25.1852H117.413V23.7037ZM115.931 23.7037H117.413V25.1852H115.931V23.7037ZM114.45 23.7037H115.931V25.1852H114.45V23.7037ZM112.968 23.7037H114.45V25.1852H112.968V23.7037ZM112.968 25.1852H114.45V26.6667H112.968V25.1852ZM111.487 25.1852H112.968V26.6667H111.487V25.1852ZM111.487 26.6667H112.968V28.1481H111.487V26.6667ZM115.931 26.6667H117.413V28.1481H115.931V26.6667ZM115.931 28.1481H117.413V29.6296H115.931V28.1481ZM114.45 26.6667H115.931V28.1481H114.45V26.6667ZM112.968 26.6667H114.45V28.1481H112.968V26.6667ZM111.487 28.1481H112.968V29.6296H111.487V28.1481ZM133.699 40H132.218V38.5185H133.699V40ZM130.736 40H129.255V38.5185H130.736V40ZM129.255 40H127.773V38.5185H129.255V40ZM127.773 40H126.292V38.5185H127.773V40ZM126.292 40H124.81V38.5185H126.292V40ZM124.81 38.5185H123.329V37.037H124.81V38.5185ZM126.292 38.5185H124.81V37.037H126.292V38.5185ZM127.773 38.5185H126.292V37.037H127.773V38.5185ZM129.255 38.5185H127.773V37.037H129.255V38.5185ZM130.736 38.5185H129.255V37.037H130.736V38.5185ZM132.218 38.5185H130.736V37.037H132.218V38.5185ZM133.699 38.5185H132.218V37.037H133.699V38.5185ZM135.181 38.5185H133.699V37.037H135.181V38.5185ZM135.181 37.037H133.699V35.5556H135.181V37.037ZM133.699 37.037H132.218V35.5556H133.699V37.037ZM136.662 37.037H135.181V35.5556H136.662V37.037ZM136.662 35.5556H135.181V34.0741H136.662V35.5556ZM136.662 34.0741H135.181V32.5926H136.662V34.0741ZM135.181 34.0741H133.699V32.5926H135.181V34.0741ZM133.699 34.0741H132.218V32.5926H133.699V34.0741ZM133.699 35.5556H132.218V34.0741H133.699V35.5556ZM135.181 35.5556H133.699V34.0741H135.181V35.5556ZM135.181 32.5926H133.699V31.1111H135.181V32.5926ZM135.181 31.1111H133.699V29.6296H135.181V31.1111ZM135.181 29.6296H133.699V28.1481H135.181V29.6296ZM136.662 29.6296H135.181V28.1481H136.662V29.6296ZM136.662 28.1481H135.181V26.6667H136.662V28.1481ZM136.662 31.1111H135.181V29.6296H136.662V31.1111ZM136.662 32.5926H135.181V31.1111H136.662V32.5926ZM133.699 32.5926H132.218V31.1111H133.699V32.5926ZM133.699 31.1111H132.218V29.6296H133.699V31.1111ZM133.699 29.6296H132.218V28.1481H133.699V29.6296ZM133.699 28.1481H132.218V26.6667H133.699V28.1481ZM135.181 28.1481H133.699V26.6667H135.181V28.1481ZM135.181 26.6667H133.699V25.1852H135.181V26.6667ZM133.699 26.6667H132.218V25.1852H133.699V26.6667ZM132.218 26.6667H130.736V25.1852H132.218V26.6667ZM132.218 28.1481H130.736V26.6667H132.218V28.1481ZM133.699 25.1852H132.218V23.7037H133.699V25.1852ZM132.218 25.1852H130.736V23.7037H132.218V25.1852ZM130.736 25.1852H129.255V23.7037H130.736V25.1852ZM129.255 25.1852H127.773V23.7037H129.255V25.1852ZM127.773 25.1852H126.292V23.7037H127.773V25.1852ZM126.292 25.1852H124.81V23.7037H126.292V25.1852ZM127.773 26.6667H126.292V25.1852H127.773V26.6667ZM129.255 26.6667H127.773V25.1852H129.255V26.6667ZM130.736 26.6667H129.255V25.1852H130.736V26.6667ZM126.292 26.6667H124.81V25.1852H126.292V26.6667ZM124.81 26.6667H123.329V25.1852H124.81V26.6667ZM126.292 28.1481H124.81V26.6667H126.292V28.1481ZM127.773 28.1481H126.292V26.6667H127.773V28.1481ZM124.81 28.1481H123.329V26.6667H124.81V28.1481ZM123.329 28.1481H121.847V26.6667H123.329V28.1481ZM124.81 35.5556H123.329V34.0741H124.81V35.5556ZM123.329 35.5556H121.847V34.0741H123.329V35.5556ZM123.329 37.037H121.847V35.5556H123.329V37.037ZM126.292 35.5556H124.81V34.0741H126.292V35.5556ZM126.292 37.037H124.81V35.5556H126.292V37.037ZM124.81 37.037H123.329V35.5556H124.81V37.037ZM130.736 28.1481H129.255V26.6667H130.736V28.1481ZM129.255 28.1481H127.773V26.6667H129.255V28.1481ZM124.81 34.0741H123.329V32.5926H124.81V34.0741ZM126.292 34.0741H124.81V32.5926H126.292V34.0741ZM130.736 32.5926H129.255V31.1111H130.736V32.5926ZM129.255 32.5926H127.773V31.1111H129.255V32.5926ZM127.773 32.5926H126.292V31.1111H127.773V32.5926ZM126.292 32.5926H124.81V31.1111H126.292V32.5926ZM132.218 32.5926H130.736V31.1111H132.218V32.5926ZM135.181 37.037H136.662V38.5185H135.181V37.037ZM135.181 38.5185H136.662V40H135.181V38.5185ZM133.699 38.5185H135.181V40H133.699V38.5185ZM130.736 29.6296H132.218V31.1111H130.736V29.6296ZM129.255 29.6296H130.736V31.1111H129.255V29.6296ZM127.773 29.6296H129.255V31.1111H127.773V29.6296ZM126.292 29.6296H127.773V31.1111H126.292V29.6296ZM124.81 29.6296H126.292V31.1111H124.81V29.6296ZM123.329 31.1111H124.81V32.5926H123.329V31.1111ZM121.847 32.5926H123.329V34.0741H121.847V32.5926ZM126.292 35.5556H127.773V37.037H126.292V35.5556ZM127.773 35.5556H129.255V37.037H127.773V35.5556ZM129.255 35.5556H130.736V37.037H129.255V35.5556ZM130.736 35.5556H132.218V37.037H130.736V35.5556ZM139.621 17.7778H141.102V19.2593H139.621V17.7778ZM139.621 19.2593H141.102V20.7407H139.621V19.2593ZM139.621 20.7407H141.102V22.2222H139.621V20.7407ZM139.621 22.2222H141.102V23.7037H139.621V22.2222ZM139.621 23.7037H141.102V25.1852H139.621V23.7037ZM139.621 25.1852H141.102V26.6667H139.621V25.1852ZM139.621 37.037H141.102V38.5185H139.621V37.037ZM139.621 38.5185H141.102V40H139.621V38.5185ZM141.102 38.5185H142.584V40H141.102V38.5185ZM142.584 17.7778H144.065V19.2593H142.584V17.7778ZM141.102 17.7778H142.584V19.2593H141.102V17.7778ZM141.102 19.2593H142.584V20.7407H141.102V19.2593ZM142.584 19.2593H144.065V20.7407H142.584V19.2593ZM142.584 20.7407H144.065V22.2222H142.584V20.7407ZM142.584 22.2222H144.065V23.7037H142.584V22.2222ZM141.102 23.7037H142.584V25.1852H141.102V23.7037ZM141.102 22.2222H142.584V23.7037H141.102V22.2222ZM141.102 20.7407H142.584V22.2222H141.102V20.7407ZM145.547 23.7037H147.028V25.1852H145.547V23.7037ZM147.028 23.7037H148.51V25.1852H147.028V23.7037ZM148.51 23.7037H149.991V25.1852H148.51V23.7037ZM149.991 23.7037H151.472V25.1852H149.991V23.7037ZM151.472 25.1852H152.954V26.6667H151.472V25.1852ZM149.991 25.1852H151.472V26.6667H149.991V25.1852ZM148.51 25.1852H149.991V26.6667H148.51V25.1852ZM147.028 25.1852H148.51V26.6667H147.028V25.1852ZM145.547 25.1852H147.028V26.6667H145.547V25.1852ZM144.065 25.1852H145.547V26.6667H144.065V25.1852ZM141.102 25.1852H142.584V26.6667H141.102V25.1852ZM142.584 34.0741H144.065V35.5556H142.584V34.0741ZM144.065 37.037H145.547V38.5185H144.065V37.037ZM144.065 35.5556H145.547V37.037H144.065V35.5556ZM144.065 38.5185H145.547V40H144.065V38.5185ZM145.547 38.5185H147.028V40H145.547V38.5185ZM147.028 38.5185H148.51V40H147.028V38.5185ZM148.51 38.5185H149.991V40H148.51V38.5185ZM149.991 38.5185H151.472V40H149.991V38.5185ZM148.51 37.037H149.991V38.5185H148.51V37.037ZM147.028 37.037H148.51V38.5185H147.028V37.037ZM145.547 37.037H147.028V38.5185H145.547V37.037ZM149.991 37.037H151.472V38.5185H149.991V37.037ZM151.472 37.037H152.954V38.5185H151.472V37.037ZM149.991 35.5556H151.472V37.037H149.991V35.5556ZM148.51 35.5556H149.991V37.037H148.51V35.5556ZM151.472 35.5556H152.954V37.037H151.472V35.5556ZM152.954 35.5556H154.435V37.037H152.954V35.5556ZM152.954 34.0741H154.435V35.5556H152.954V34.0741ZM151.472 32.5926H152.954V34.0741H151.472V32.5926ZM151.472 34.0741H152.954V35.5556H151.472V34.0741ZM149.991 34.0741H151.472V35.5556H149.991V34.0741ZM152.954 32.5926H154.435V34.0741H152.954V32.5926ZM152.954 31.1111H154.435V32.5926H152.954V31.1111ZM151.472 31.1111H152.954V32.5926H151.472V31.1111ZM151.472 29.6296H152.954V31.1111H151.472V29.6296ZM151.472 28.1481H152.954V29.6296H151.472V28.1481ZM152.954 28.1481H154.435V29.6296H152.954V28.1481ZM152.954 26.6667H154.435V28.1481H152.954V26.6667ZM152.954 29.6296H154.435V31.1111H152.954V29.6296ZM149.991 31.1111H151.472V32.5926H149.991V31.1111ZM149.991 32.5926H151.472V34.0741H149.991V32.5926ZM149.991 29.6296H151.472V31.1111H149.991V29.6296ZM149.991 28.1481H151.472V29.6296H149.991V28.1481ZM149.991 26.6667H151.472V28.1481H149.991V26.6667ZM148.51 26.6667H149.991V28.1481H148.51V26.6667ZM151.472 26.6667H152.954V28.1481H151.472V26.6667ZM144.065 26.6667H145.547V28.1481H144.065V26.6667ZM145.547 26.6667H147.028V28.1481H145.547V26.6667ZM147.028 26.6667H148.51V28.1481H147.028V26.6667ZM145.547 35.5556H147.028V37.037H145.547V35.5556ZM147.028 35.5556H148.51V37.037H147.028V35.5556ZM142.584 38.5185H144.065V40H142.584V38.5185ZM142.584 37.037H144.065V38.5185H142.584V37.037ZM142.584 35.5556H144.065V37.037H142.584V35.5556ZM141.102 35.5556H142.584V37.037H141.102V35.5556ZM141.102 37.037H142.584V38.5185H141.102V37.037ZM141.102 34.0741H142.584V35.5556H141.102V34.0741ZM142.584 32.5926H144.065V34.0741H142.584V32.5926ZM142.584 31.1111H144.065V32.5926H142.584V31.1111ZM142.584 29.6296H144.065V31.1111H142.584V29.6296ZM142.584 28.1481H144.065V29.6296H142.584V28.1481ZM142.584 26.6667H144.065V28.1481H142.584V26.6667ZM142.584 25.1852H144.065V26.6667H142.584V25.1852ZM142.584 23.7037H144.065V25.1852H142.584V23.7037ZM141.102 26.6667H142.584V28.1481H141.102V26.6667ZM141.102 28.1481H142.584V29.6296H141.102V28.1481ZM141.102 29.6296H142.584V31.1111H141.102V29.6296ZM141.102 31.1111H142.584V32.5926H141.102V31.1111ZM141.102 32.5926H142.584V34.0741H141.102V32.5926ZM139.621 34.0741H141.102V35.5556H139.621V34.0741ZM139.621 35.5556H141.102V37.037H139.621V35.5556ZM139.621 32.5926H141.102V34.0741H139.621V32.5926ZM139.621 31.1111H141.102V32.5926H139.621V31.1111ZM139.621 29.6296H141.102V31.1111H139.621V29.6296ZM139.621 28.1481H141.102V29.6296H139.621V28.1481ZM139.621 26.6667H141.102V28.1481H139.621V26.6667ZM144.065 28.1481H145.547V29.6296H144.065V28.1481ZM157.394 17.7778H158.876V19.2593H157.394V17.7778ZM157.394 19.2593H158.876V20.7407H157.394V19.2593ZM157.394 20.7407H158.876V22.2222H157.394V20.7407ZM157.394 22.2222H158.876V23.7037H157.394V22.2222ZM157.394 23.7037H158.876V25.1852H157.394V23.7037ZM157.394 25.1852H158.876V26.6667H157.394V25.1852ZM157.394 37.037H158.876V38.5185H157.394V37.037ZM157.394 38.5185H158.876V40H157.394V38.5185ZM158.876 38.5185H160.357V40H158.876V38.5185ZM160.357 17.7778H161.839V19.2593H160.357V17.7778ZM158.876 17.7778H160.357V19.2593H158.876V17.7778ZM158.876 19.2593H160.357V20.7407H158.876V19.2593ZM160.357 19.2593H161.839V20.7407H160.357V19.2593ZM160.357 20.7407H161.839V22.2222H160.357V20.7407ZM160.357 22.2222H161.839V23.7037H160.357V22.2222ZM158.876 23.7037H160.357V25.1852H158.876V23.7037ZM158.876 22.2222H160.357V23.7037H158.876V22.2222ZM158.876 20.7407H160.357V22.2222H158.876V20.7407ZM163.32 23.7037H164.801V25.1852H163.32V23.7037ZM164.801 23.7037H166.283V25.1852H164.801V23.7037ZM166.283 23.7037H167.764V25.1852H166.283V23.7037ZM167.764 23.7037H169.246V25.1852H167.764V23.7037ZM169.246 25.1852H170.727V26.6667H169.246V25.1852ZM167.764 25.1852H169.246V26.6667H167.764V25.1852ZM166.283 25.1852H167.764V26.6667H166.283V25.1852ZM164.801 25.1852H166.283V26.6667H164.801V25.1852ZM163.32 25.1852H164.801V26.6667H163.32V25.1852ZM161.839 25.1852H163.32V26.6667H161.839V25.1852ZM158.876 25.1852H160.357V26.6667H158.876V25.1852ZM160.357 34.0741H161.839V35.5556H160.357V34.0741ZM161.839 37.037H163.32V38.5185H161.839V37.037ZM161.839 35.5556H163.32V37.037H161.839V35.5556ZM161.839 38.5185H163.32V40H161.839V38.5185ZM163.32 38.5185H164.801V40H163.32V38.5185ZM164.801 38.5185H166.283V40H164.801V38.5185ZM166.283 38.5185H167.764V40H166.283V38.5185ZM167.764 38.5185H169.246V40H167.764V38.5185ZM166.283 37.037H167.764V38.5185H166.283V37.037ZM164.801 37.037H166.283V38.5185H164.801V37.037ZM163.32 37.037H164.801V38.5185H163.32V37.037ZM167.764 37.037H169.246V38.5185H167.764V37.037ZM169.246 37.037H170.727V38.5185H169.246V37.037ZM167.764 35.5556H169.246V37.037H167.764V35.5556ZM166.283 35.5556H167.764V37.037H166.283V35.5556ZM169.246 35.5556H170.727V37.037H169.246V35.5556ZM170.727 35.5556H172.209V37.037H170.727V35.5556ZM170.727 34.0741H172.209V35.5556H170.727V34.0741ZM169.246 32.5926H170.727V34.0741H169.246V32.5926ZM169.246 34.0741H170.727V35.5556H169.246V34.0741ZM167.764 34.0741H169.246V35.5556H167.764V34.0741ZM170.727 32.5926H172.209V34.0741H170.727V32.5926ZM170.727 31.1111H172.209V32.5926H170.727V31.1111ZM169.246 31.1111H170.727V32.5926H169.246V31.1111ZM169.246 29.6296H170.727V31.1111H169.246V29.6296ZM169.246 28.1481H170.727V29.6296H169.246V28.1481ZM170.727 28.1481H172.209V29.6296H170.727V28.1481ZM170.727 26.6667H172.209V28.1481H170.727V26.6667ZM170.727 29.6296H172.209V31.1111H170.727V29.6296ZM167.764 31.1111H169.246V32.5926H167.764V31.1111ZM167.764 32.5926H169.246V34.0741H167.764V32.5926ZM167.764 29.6296H169.246V31.1111H167.764V29.6296ZM167.764 28.1481H169.246V29.6296H167.764V28.1481ZM167.764 26.6667H169.246V28.1481H167.764V26.6667ZM166.283 26.6667H167.764V28.1481H166.283V26.6667ZM169.246 26.6667H170.727V28.1481H169.246V26.6667ZM161.839 26.6667H163.32V28.1481H161.839V26.6667ZM163.32 26.6667H164.801V28.1481H163.32V26.6667ZM164.801 26.6667H166.283V28.1481H164.801V26.6667ZM163.32 35.5556H164.801V37.037H163.32V35.5556ZM164.801 35.5556H166.283V37.037H164.801V35.5556ZM160.357 38.5185H161.839V40H160.357V38.5185ZM160.357 37.037H161.839V38.5185H160.357V37.037ZM160.357 35.5556H161.839V37.037H160.357V35.5556ZM158.876 35.5556H160.357V37.037H158.876V35.5556ZM158.876 37.037H160.357V38.5185H158.876V37.037ZM158.876 34.0741H160.357V35.5556H158.876V34.0741ZM160.357 32.5926H161.839V34.0741H160.357V32.5926ZM160.357 31.1111H161.839V32.5926H160.357V31.1111ZM160.357 29.6296H161.839V31.1111H160.357V29.6296ZM160.357 28.1481H161.839V29.6296H160.357V28.1481ZM160.357 26.6667H161.839V28.1481H160.357V26.6667ZM160.357 25.1852H161.839V26.6667H160.357V25.1852ZM160.357 23.7037H161.839V25.1852H160.357V23.7037ZM158.876 26.6667H160.357V28.1481H158.876V26.6667ZM158.876 28.1481H160.357V29.6296H158.876V28.1481ZM158.876 29.6296H160.357V31.1111H158.876V29.6296ZM158.876 31.1111H160.357V32.5926H158.876V31.1111ZM158.876 32.5926H160.357V34.0741H158.876V32.5926ZM157.394 34.0741H158.876V35.5556H157.394V34.0741ZM157.394 35.5556H158.876V37.037H157.394V35.5556ZM157.394 32.5926H158.876V34.0741H157.394V32.5926ZM157.394 31.1111H158.876V32.5926H157.394V31.1111ZM157.394 29.6296H158.876V31.1111H157.394V29.6296ZM157.394 28.1481H158.876V29.6296H157.394V28.1481ZM157.394 26.6667H158.876V28.1481H157.394V26.6667ZM161.839 28.1481H163.32V29.6296H161.839V28.1481ZM175.168 17.7778H176.649V19.2593H175.168V17.7778ZM175.168 19.2593H176.649V20.7407H175.168V19.2593ZM175.168 20.7407H176.649V22.2222H175.168V20.7407ZM175.168 25.1852H176.649V26.6667H175.168V25.1852ZM175.168 26.6667H176.649V28.1481H175.168V26.6667ZM175.168 28.1481H176.649V29.6296H175.168V28.1481ZM175.168 29.6296H176.649V31.1111H175.168V29.6296ZM175.168 31.1111H176.649V32.5926H175.168V31.1111ZM175.168 32.5926H176.649V34.0741H175.168V32.5926ZM175.168 34.0741H176.649V35.5556H175.168V34.0741ZM175.168 35.5556H176.649V37.037H175.168V35.5556ZM175.168 37.037H176.649V38.5185H175.168V37.037ZM175.168 38.5185H176.649V40H175.168V38.5185ZM176.649 38.5185H178.13V40H176.649V38.5185ZM178.13 38.5185H179.612V40H178.13V38.5185ZM178.13 37.037H179.612V38.5185H178.13V37.037ZM178.13 35.5556H179.612V37.037H178.13V35.5556ZM178.13 34.0741H179.612V35.5556H178.13V34.0741ZM178.13 32.5926H179.612V34.0741H178.13V32.5926ZM178.13 31.1111H179.612V32.5926H178.13V31.1111ZM178.13 29.6296H179.612V31.1111H178.13V29.6296ZM178.13 28.1481H179.612V29.6296H178.13V28.1481ZM178.13 26.6667H179.612V28.1481H178.13V26.6667ZM178.13 17.7778H179.612V19.2593H178.13V17.7778ZM176.649 17.7778H178.13V19.2593H176.649V17.7778ZM176.649 19.2593H178.13V20.7407H176.649V19.2593ZM178.13 19.2593H179.612V20.7407H178.13V19.2593ZM178.13 20.7407H179.612V22.2222H178.13V20.7407ZM178.13 25.1852H179.612V26.6667H178.13V25.1852ZM176.649 20.7407H178.13V22.2222H176.649V20.7407ZM176.649 25.1852H178.13V26.6667H176.649V25.1852ZM176.649 26.6667H178.13V28.1481H176.649V26.6667ZM176.649 37.037H178.13V38.5185H176.649V37.037ZM176.649 35.5556H178.13V37.037H176.649V35.5556ZM176.649 34.0741H178.13V35.5556H176.649V34.0741ZM176.649 32.5926H178.13V34.0741H176.649V32.5926ZM176.649 31.1111H178.13V32.5926H176.649V31.1111ZM176.649 29.6296H178.13V31.1111H176.649V29.6296ZM176.649 28.1481H178.13V29.6296H176.649V28.1481ZM188.515 19.2593H189.997V20.7407H188.515V19.2593ZM188.515 20.7407H189.997V22.2222H188.515V20.7407ZM187.034 20.7407H188.515V22.2222H187.034V20.7407ZM188.515 22.2222H189.997V23.7037H188.515V22.2222ZM187.034 22.2222H188.515V23.7037H187.034V22.2222ZM185.552 22.2222H187.034V23.7037H185.552V22.2222ZM185.552 23.7037H187.034V25.1852H185.552V23.7037ZM187.034 23.7037H188.515V25.1852H187.034V23.7037ZM188.515 23.7037H189.997V25.1852H188.515V23.7037ZM188.515 25.1852H189.997V26.6667H188.515V25.1852ZM187.034 25.1852H188.515V26.6667H187.034V25.1852ZM185.552 25.1852H187.034V26.6667H185.552V25.1852ZM184.071 25.1852H185.552V26.6667H184.071V25.1852ZM182.589 25.1852H184.071V26.6667H182.589V25.1852ZM182.589 26.6667H184.071V28.1481H182.589V26.6667ZM184.071 26.6667H185.552V28.1481H184.071V26.6667ZM185.552 26.6667H187.034V28.1481H185.552V26.6667ZM187.034 26.6667H188.515V28.1481H187.034V26.6667ZM188.515 26.6667H189.997V28.1481H188.515V26.6667ZM189.997 26.6667H191.478V28.1481H189.997V26.6667ZM191.478 26.6667H192.96V28.1481H191.478V26.6667ZM192.96 26.6667H194.441V28.1481H192.96V26.6667ZM192.96 25.1852H194.441V26.6667H192.96V25.1852ZM191.478 25.1852H192.96V26.6667H191.478V25.1852ZM189.997 25.1852H191.478V26.6667H189.997V25.1852ZM185.552 28.1481H187.034V29.6296H185.552V28.1481ZM187.034 28.1481H188.515V29.6296H187.034V28.1481ZM188.515 28.1481H189.997V29.6296H188.515V28.1481ZM188.515 29.6296H189.997V31.1111H188.515V29.6296ZM188.515 31.1111H189.997V32.5926H188.515V31.1111ZM188.515 32.5926H189.997V34.0741H188.515V32.5926ZM188.515 34.0741H189.997V35.5556H188.515V34.0741ZM187.034 34.0741H188.515V35.5556H187.034V34.0741ZM187.034 32.5926H188.515V34.0741H187.034V32.5926ZM187.034 31.1111H188.515V32.5926H187.034V31.1111ZM187.034 29.6296H188.515V31.1111H187.034V29.6296ZM185.552 29.6296H187.034V31.1111H185.552V29.6296ZM185.552 31.1111H187.034V32.5926H185.552V31.1111ZM185.552 32.5926H187.034V34.0741H185.552V32.5926ZM185.552 34.0741H187.034V35.5556H185.552V34.0741ZM185.552 35.5556H187.034V37.037H185.552V35.5556ZM187.034 35.5556H188.515V37.037H187.034V35.5556ZM188.515 35.5556H189.997V37.037H188.515V35.5556ZM189.997 35.5556H191.478V37.037H189.997V35.5556ZM189.997 37.037H191.478V38.5185H189.997V37.037ZM188.515 37.037H189.997V38.5185H188.515V37.037ZM187.034 37.037H188.515V38.5185H187.034V37.037ZM191.478 37.037H192.96V38.5185H191.478V37.037ZM192.96 37.037H194.441V38.5185H192.96V37.037ZM192.96 38.5185H194.441V40H192.96V38.5185ZM191.478 38.5185H192.96V40H191.478V38.5185ZM189.997 38.5185H191.478V40H189.997V38.5185ZM188.515 38.5185H189.997V40H188.515V38.5185Z" fill="#FBB45E"/>
</svg>
