<svg width="33" height="32" viewBox="0 0 33 32" fill="none" xmlns="http://www.w3.org/2000/svg">
<g id="share">
<mask id="mask0_167_346" style="mask-type:alpha" maskUnits="userSpaceOnUse" x="0" y="0" width="33" height="32">
<rect id="Bounding box" x="0.5" width="32" height="32" fill="#D9D9D9"/>
</mask>
<g mask="url(#mask0_167_346)">
<path id="share_2" d="M23.1665 29.3333C22.0554 29.3333 21.1109 28.9444 20.3332 28.1667C19.5554 27.3889 19.1665 26.4444 19.1665 25.3333C19.1665 25.2 19.1998 24.8889 19.2665 24.4L9.89984 18.9333C9.54428 19.2667 9.13317 19.5278 8.6665 19.7167C8.19984 19.9056 7.69984 20 7.1665 20C6.05539 20 5.11095 19.6111 4.33317 18.8333C3.55539 18.0556 3.1665 17.1111 3.1665 16C3.1665 14.8889 3.55539 13.9444 4.33317 13.1667C5.11095 12.3889 6.05539 12 7.1665 12C7.69984 12 8.19984 12.0944 8.6665 12.2833C9.13317 12.4722 9.54428 12.7333 9.89984 13.0667L19.2665 7.6C19.2221 7.44444 19.1943 7.29444 19.1832 7.15C19.1721 7.00555 19.1665 6.84444 19.1665 6.66666C19.1665 5.55555 19.5554 4.61111 20.3332 3.83333C21.1109 3.05555 22.0554 2.66666 23.1665 2.66666C24.2776 2.66666 25.2221 3.05555 25.9998 3.83333C26.7776 4.61111 27.1665 5.55555 27.1665 6.66666C27.1665 7.77777 26.7776 8.72222 25.9998 9.5C25.2221 10.2778 24.2776 10.6667 23.1665 10.6667C22.6332 10.6667 22.1332 10.5722 21.6665 10.3833C21.1998 10.1944 20.7887 9.93333 20.4332 9.6L11.0665 15.0667C11.1109 15.2222 11.1387 15.3722 11.1498 15.5167C11.1609 15.6611 11.1665 15.8222 11.1665 16C11.1665 16.1778 11.1609 16.3389 11.1498 16.4833C11.1387 16.6278 11.1109 16.7778 11.0665 16.9333L20.4332 22.4C20.7887 22.0667 21.1998 21.8056 21.6665 21.6167C22.1332 21.4278 22.6332 21.3333 23.1665 21.3333C24.2776 21.3333 25.2221 21.7222 25.9998 22.5C26.7776 23.2778 27.1665 24.2222 27.1665 25.3333C27.1665 26.4444 26.7776 27.3889 25.9998 28.1667C25.2221 28.9444 24.2776 29.3333 23.1665 29.3333Z" fill="#FBB45E"/>
</g>
</g>
</svg>
