<svg width="25" height="25" viewBox="0 0 25 25" fill="none" xmlns="http://www.w3.org/2000/svg">
<g id="visibility_off">
<mask id="mask0_233_196" style="mask-type:alpha" maskUnits="userSpaceOnUse" x="0" y="0" width="25" height="25">
<rect id="Bounding box" x="0.24353" y="0.0310669" width="24" height="24" fill="#D9D9D9"/>
</mask>
<g mask="url(#mask0_233_196)">
<path id="visibility_off_2" d="M20.0435 22.6311L15.8435 18.4811C15.2602 18.6644 14.6727 18.8019 14.081 18.8936C13.4894 18.9852 12.8769 19.0311 12.2435 19.0311C9.72686 19.0311 7.4852 18.3352 5.51853 16.9436C3.55186 15.5519 2.12686 13.7477 1.24353 11.5311C1.59353 10.6477 2.0352 9.82689 2.56853 9.06856C3.10186 8.31022 3.7102 7.63105 4.39353 7.03105L1.64353 4.23105L3.04353 2.83105L21.4435 21.2311L20.0435 22.6311ZM12.2435 16.0311C12.4269 16.0311 12.5977 16.0227 12.756 16.0061C12.9144 15.9894 13.0852 15.9561 13.2685 15.9061L7.86853 10.5061C7.81853 10.6894 7.7852 10.8602 7.76853 11.0186C7.75186 11.1769 7.74353 11.3477 7.74353 11.5311C7.74353 12.7811 8.18103 13.8436 9.05603 14.7186C9.93103 15.5936 10.9935 16.0311 12.2435 16.0311ZM19.5435 16.4811L16.3685 13.3311C16.4852 13.0477 16.5769 12.7602 16.6435 12.4686C16.7102 12.1769 16.7435 11.8644 16.7435 11.5311C16.7435 10.2811 16.306 9.21856 15.431 8.34355C14.556 7.46855 13.4935 7.03105 12.2435 7.03105C11.9102 7.03105 11.5977 7.06439 11.306 7.13105C11.0144 7.19772 10.7269 7.29772 10.4435 7.43106L7.89353 4.88105C8.57686 4.59772 9.27686 4.38522 9.99353 4.24355C10.7102 4.10189 11.4602 4.03105 12.2435 4.03105C14.7602 4.03105 17.0019 4.72689 18.9685 6.11856C20.9352 7.51022 22.3602 9.31439 23.2435 11.5311C22.8602 12.5144 22.356 13.4269 21.731 14.2686C21.106 15.1102 20.3769 15.8477 19.5435 16.4811ZM14.9185 11.8811L11.9185 8.88106C12.3852 8.79772 12.8144 8.83522 13.206 8.99356C13.5977 9.15189 13.9352 9.38106 14.2185 9.68106C14.5019 9.98106 14.706 10.3269 14.831 10.7186C14.956 11.1102 14.9852 11.4977 14.9185 11.8811Z" fill="#C7C6C6"/>
</g>
</g>
</svg>
