<svg width="48" height="48" viewBox="0 0 48 48" fill="none" xmlns="http://www.w3.org/2000/svg">
<path d="M35.3266 14.9804C36.02 14.2651 35.9096 13.2027 35.0751 12.6084C34.2406 12.0141 33.0012 12.1088 32.3078 12.8241L24 21.3704L15.6922 12.8241C14.9988 12.1088 13.7594 12.0141 12.9249 12.6084C12.0905 13.2027 11.98 14.2651 12.6734 14.9804L21.4414 24.0001L12.6734 33.0198C11.98 33.7351 12.0905 34.7974 12.9249 35.3917C13.7594 35.986 14.9988 35.8914 15.6922 35.1761L24 26.6297L32.3078 35.1761C33.0012 35.8914 34.2406 35.9861 35.0751 35.3917C35.9096 34.7974 36.02 33.7351 35.3266 33.0198L26.5586 24.0001L35.3266 14.9804Z" fill="#FBB45E"/>
<circle cx="24" cy="24" r="21.5" stroke="#FBB45E" stroke-width="5"/>
</svg>
